<?xml version="1.0" encoding="UTF-8"?>
<!DOCTYPE svg PUBLIC "-//W3C//DTD SVG 1.1//EN" "http://www.w3.org/Graphics/SVG/1.1/DTD/svg11.dtd">
<!-- Creator: CorelDRAW X8 -->
<svg xmlns="http://www.w3.org/2000/svg" xml:space="preserve" width="160mm" height="160mm" version="1.1" style="shape-rendering:geometricPrecision; text-rendering:geometricPrecision; image-rendering:optimizeQuality; fill-rule:evenodd; clip-rule:evenodd"
viewBox="0 0 16000 16000"
 xmlns:xlink="http://www.w3.org/1999/xlink">
 <defs>
  <style type="text/css">
   <![CDATA[
    .fil0 {fill:black}
   ]]>
  </style>
 </defs>
 <g id="Camada_x0020_1">
  <metadata id="CorelCorpID_0Corel-Layer"/>
  <g id="_1726330522992">
   <g id="_2216888714160">
    <path class="fil0" d="M6552 15117l0 -1204 -478 0 0 -135c0,-771 3,-1543 0,-2313 -3,-710 -463,-1268 -1153,-1395 -92,-17 -187,-21 -280,-22 -350,-1 -701,0 -1050,0l-122 0c31,-51 53,-87 75,-121 1370,-2099 2740,-4198 4111,-6296 67,-102 117,-200 108,-330 -9,-112 71,-207 168,-234 98,-29 206,2 258,88 29,48 52,110 48,163 -8,111 32,197 91,287 1375,2103 2748,4208 4120,6312 25,37 49,75 84,131 -56,0 -94,0 -131,0 -411,2 -824,-11 -1234,14 -641,38 -1194,605 -1234,1245 -14,229 -9,460 -10,690 -1,592 0,1186 0,1779l0 132 -475 0 0 1209 -2896 0 0 0zm7724 -13843c314,0 568,256 568,570 0,314 -254,568 -568,568 -314,0 -569,-254 -569,-568 0,-314 255,-570 569,-570zm-12532 0c314,0 569,256 569,570 0,314 -255,568 -569,568 -314,0 -569,-254 -569,-568 0,-314 255,-570 569,-570zm6500 7363c34,11 64,21 94,34 367,153 582,427 619,823 48,498 -308,940 -810,1026 -474,83 -947,-228 -1076,-705 -128,-476 131,-977 597,-1144 72,-27 94,-54 94,-129 -3,-1357 -3,-2714 -3,-4072 0,-31 -3,-61 -6,-117l-3406 5220c139,0 253,-1 366,0 788,9 1492,514 1735,1264 64,197 86,411 100,619 16,251 4,504 4,759l2896 0c0,-260 -2,-513 0,-765 10,-1068 825,-1876 1894,-1877 96,-1 192,0 311,0l-3391 -5199 -18 9 0 4254zm-1687 4782l2883 0 0 -709 -2883 0 0 709zm2401 496l-1916 0 0 715 1916 0 0 -715zm-960 -4829c-267,1 -479,213 -479,482 0,268 212,482 479,484 269,2 484,-216 483,-488 -2,-268 -214,-478 -483,-478zm7226 -7114c-17,59 -31,117 -50,176 -127,385 -486,654 -883,661 -419,7 -782,-237 -928,-625 -11,-30 -21,-61 -32,-92l-2873 0c76,34 126,52 174,76 124,61 175,188 125,309 -51,120 -178,177 -307,130 -149,-54 -302,-117 -449,-180 -129,-55 -164,-149 -130,-340 -160,0 -318,0 -476,1 -13,0 -30,1 -36,9 -108,135 -248,98 -394,70l0 634 -1927 0c0,-197 -5,-394 2,-591 4,-98 -27,-130 -126,-125 -152,8 -304,2 -461,2 -6,165 -103,238 -245,275 -116,32 -228,75 -341,116 -107,39 -204,32 -285,-56 -75,-81 -80,-177 -19,-296 4,-8 6,-17 13,-33l-2881 0c-86,140 -149,282 -247,394 -253,287 -579,386 -949,291 -378,-99 -607,-354 -701,-733 -6,-24 -15,-49 -22,-73l0 -253c7,-23 16,-47 22,-72 87,-350 298,-591 641,-713 56,-20 116,-34 173,-51l253 0c11,6 21,14 34,16 375,75 623,297 751,655 7,17 15,33 20,44l4368 0 0 -715 1924 0 0 719 4370 0c104,-325 306,-555 628,-668 58,-20 116,-34 175,-51l253 0c24,7 47,16 72,22 383,96 627,334 734,715 10,33 20,66 30,99 0,84 0,169 0,253zm-7703 356l954 0 0 -955 -954 0 0 955zm-6745 5555l724 0c19,-197 32,-387 54,-575 16,-152 120,-237 263,-224 132,12 218,118 206,267 -12,173 -29,346 -46,531l718 0 0 1927 -1919 0 0 -1926zm488 481l0 955 949 0 0 -955 -949 0zm13960 1445l-1918 0 0 -1922 698 0c0,-75 2,-138 0,-201 -6,-163 82,-278 224,-287 144,-8 250,102 255,269 2,68 1,135 1,215l740 0 0 1926zm-490 -487l0 -954 -948 0 0 954 948 0z"/>
    <path class="fil0" d="M4642 2194c-20,30 -51,107 -107,150 -132,97 -275,180 -418,264 -114,70 -254,35 -322,-74 -71,-110 -48,-248 66,-325 139,-95 280,-186 427,-267 163,-89 353,25 354,252l0 0zm-1731 1406c-102,-14 -173,-58 -218,-142 -45,-85 -45,-176 18,-245 124,-136 252,-270 388,-393 96,-87 238,-66 323,30 80,90 82,227 -4,318 -116,122 -233,241 -356,356 -40,36 -100,51 -151,76l0 0zm8863 -340c4,-126 45,-202 136,-243 90,-41 184,-38 253,32 128,132 253,269 368,413 76,97 47,237 -48,313 -94,77 -229,74 -316,-15 -117,-124 -232,-253 -342,-384 -31,-38 -41,-91 -52,-116l1 0zm1583 1532c-1,117 -66,203 -169,235 -95,31 -204,3 -256,-86 -93,-153 -182,-314 -262,-475 -52,-106 -2,-235 98,-295 97,-57 238,-45 297,50 105,167 192,344 285,517 10,19 6,44 7,54l0 0zm-12095 992c52,-143 115,-343 201,-534 44,-101 187,-123 290,-73 106,50 160,166 123,285 -46,156 -99,314 -155,468 -39,111 -155,174 -262,153 -120,-22 -200,-120 -197,-299l0 0zm10285 -3202c-20,197 -220,313 -380,212 -143,-91 -283,-191 -420,-294 -103,-79 -118,-217 -45,-322 70,-98 203,-136 309,-69 150,95 297,197 435,307 48,37 69,110 101,166l0 0zm2316 3570c-17,127 -97,221 -217,243 -107,20 -227,-48 -260,-156 -50,-166 -97,-337 -139,-505 -26,-110 45,-224 151,-263 109,-40 245,-5 284,100 71,189 123,386 181,581l0 0zm-11306 -2043c-19,46 -31,97 -57,139 -73,126 -151,248 -227,372 -81,132 -220,173 -339,102 -115,-70 -150,-211 -75,-339 81,-140 166,-278 255,-411 63,-95 172,-125 275,-91 92,31 155,122 168,228l0 0z"/>
   </g>
  </g>
 </g>
</svg>
