<?xml version="1.0" encoding="UTF-8"?>
<!DOCTYPE svg PUBLIC "-//W3C//DTD SVG 1.1//EN" "http://www.w3.org/Graphics/SVG/1.1/DTD/svg11.dtd">
<!-- Creator: CorelDRAW X8 -->
<svg xmlns="http://www.w3.org/2000/svg" xml:space="preserve" width="160mm" height="160mm" version="1.1" style="shape-rendering:geometricPrecision; text-rendering:geometricPrecision; image-rendering:optimizeQuality; fill-rule:evenodd; clip-rule:evenodd"
viewBox="0 0 16000 16000"
 xmlns:xlink="http://www.w3.org/1999/xlink">
 <defs>
  <style type="text/css">
   <![CDATA[
    .fil0 {fill:black}
   ]]>
  </style>
 </defs>
 <g id="Camada_x0020_1">
  <metadata id="CorelCorpID_0Corel-Layer"/>
  <g id="_1726330471232">
   <g id="ic-enfermagem">
    <path class="fil0" d="M14080 2890c-224,0 -646,61 -1025,440 0,0 -1207,1206 -1207,1206 0,0 -379,-388 -379,-388 0,0 1198,-1206 1198,-1206 379,-379 439,-801 439,-1025 0,-664 -543,-1215 -1215,-1215 -672,0 -1223,551 -1223,1215 0,396 198,767 517,999 112,78 258,52 336,-60 77,-112 52,-258 -52,-336 -198,-138 -310,-362 -310,-603 0,-397 327,-724 732,-724 397,0 724,327 724,724 0,250 -103,500 -293,681 0,0 -1198,1206 -1198,1206 0,0 -1016,-1008 -1016,-1008 -190,-190 -500,-190 -690,0 0,0 -2852,2843 -2852,2843 -86,103 -86,250 0,345 104,95 259,95 345,0 0,0 2852,-2844 2852,-2844 0,0 1904,1905 1904,1905 9,0 9,0 9,8 0,0 9,0 9,0 0,0 1171,1181 1171,1181 0,0 -2412,2412 -2412,2412 0,0 -569,-577 -569,-577 -103,-95 -250,-95 -345,0 -94,95 -94,250 0,345 0,0 569,577 569,577 0,0 -1111,1111 -1111,1111 0,0 -578,-568 -578,-568 -94,-104 -250,-104 -344,0 -95,94 -95,241 0,336 0,0 577,577 577,577 0,0 -1112,1120 -1112,1120 0,0 -577,-577 -577,-577 -95,-95 -250,-95 -344,0 -95,95 -95,250 0,344 0,0 577,569 577,569 0,0 -345,345 -345,345 -276,276 -758,276 -1034,0 0,0 -344,-345 -344,-345 -44,-43 -104,-69 -164,-69 -69,0 -129,26 -181,69 0,0 -853,862 -853,862 0,0 -1034,-1034 -1034,-1034 0,0 862,-853 862,-853 94,-95 94,-250 0,-345 0,0 -345,-344 -345,-344 -138,-138 -215,-319 -224,-517 -9,-173 43,-337 138,-440 0,0 2214,-2206 2214,-2206 0,0 5523,0 5523,0 138,0 241,-103 241,-241 0,-138 -103,-241 -241,-241 0,0 -5626,0 -5626,0 -61,0 -121,26 -173,69 0,0 -2283,2274 -2283,2274 -189,199 -293,492 -284,802 17,319 146,620 370,844 0,0 173,172 173,172 0,0 -690,681 -690,681 -189,190 -189,500 0,689 0,0 345,345 345,345 0,0 -2456,2464 -2456,2464 -94,95 -94,242 0,336 43,52 104,78 173,78 60,0 120,-26 172,-78 0,0 2456,-2455 2456,-2455 0,0 344,344 344,344 95,95 216,147 345,147 121,0 250,-52 345,-147 0,0 689,-689 689,-689 0,0 164,172 164,172 232,233 542,354 861,354 328,0 629,-121 862,-354 0,0 6014,-6014 6014,-6014 190,-189 190,-499 0,-689 0,0 -1008,-1008 -1008,-1008 0,0 1206,-1206 1206,-1206 190,-190 431,-293 681,-293 396,0 724,327 724,723 0,405 -328,733 -724,733 -241,0 -465,-112 -603,-310 -78,-104 -224,-138 -336,-61 -112,86 -138,233 -61,345 233,319 604,517 1000,517 672,0 1215,-552 1215,-1224 0,-663 -543,-1215 -1215,-1215z"/>
   </g>
  </g>
 </g>
</svg>
