<?xml version="1.0" encoding="UTF-8"?>
<!DOCTYPE svg PUBLIC "-//W3C//DTD SVG 1.1//EN" "http://www.w3.org/Graphics/SVG/1.1/DTD/svg11.dtd">
<!-- Creator: CorelDRAW X8 -->
<svg xmlns="http://www.w3.org/2000/svg" xml:space="preserve" width="160mm" height="160mm" version="1.1" style="shape-rendering:geometricPrecision; text-rendering:geometricPrecision; image-rendering:optimizeQuality; fill-rule:evenodd; clip-rule:evenodd"
viewBox="0 0 16000 16000"
 xmlns:xlink="http://www.w3.org/1999/xlink">
 <defs>
  <style type="text/css">
   <![CDATA[
    .fil0 {fill:black}
   ]]>
  </style>
 </defs>
 <g id="Camada_x0020_1">
  <metadata id="CorelCorpID_0Corel-Layer"/>
  <g id="_1726525750928">
   <g id="ic-construcao">
    <path class="fil0" d="M388 15612c0,0 15224,-15224 15224,-15224 0,0 0,15224 0,15224 0,0 -15224,0 -15224,0zm14745 -1456c0,0 -480,0 -480,0 0,0 0,-479 0,-479 0,0 480,0 480,0 0,0 0,-960 0,-960 0,0 -715,0 -715,0 0,0 0,-479 0,-479 0,0 715,0 715,0 0,0 0,-959 0,-959 0,0 -480,0 -480,0 0,0 0,-480 0,-480 0,0 480,0 480,0 0,0 0,-959 0,-959 0,0 -715,0 -715,0 0,0 0,-480 0,-480 0,0 715,0 715,0 0,0 0,-959 0,-959 0,0 -480,0 -480,0 0,0 0,-479 0,-479 0,0 480,0 480,0 0,0 0,-960 0,-960 0,0 -715,0 -715,0 0,0 0,-479 0,-479 0,0 715,0 715,0 0,0 0,-959 0,-959 0,0 -480,0 -480,0 0,0 0,-480 0,-480 0,0 480,0 480,0 0,0 0,-959 0,-959 0,0 -715,0 -715,0 0,0 0,-480 0,-480 0,0 715,0 715,0 0,0 0,-959 0,-959 0,0 -480,0 -480,0 0,0 0,-479 0,-479 0,0 480,0 480,0 0,0 0,-620 0,-620 0,0 -13586,13586 -13586,13586 0,0 637,0 637,0 0,0 0,-480 0,-480 0,0 480,0 480,0 0,0 0,480 0,480 0,0 959,0 959,0 0,0 0,-715 0,-715 0,0 479,0 479,0 0,0 0,715 0,715 0,0 959,0 959,0 0,0 0,-480 0,-480 0,0 480,0 480,0 0,0 0,480 0,480 0,0 959,0 959,0 0,0 0,-715 0,-715 0,0 480,0 480,0 0,0 0,715 0,715 0,0 959,0 959,0 0,0 0,-480 0,-480 0,0 480,0 480,0 0,0 0,480 0,480 0,0 959,0 959,0 0,0 0,-715 0,-715 0,0 479,0 479,0 0,0 0,715 0,715 0,0 959,0 959,0 0,0 0,-480 0,-480 0,0 480,0 480,0 0,0 0,480 0,480 0,0 959,0 959,0 0,0 0,-715 0,-715 0,0 480,0 480,0 0,0 0,715 0,715 0,0 959,0 959,0 0,0 0,-480 0,-480 0,0 480,0 480,0 0,0 0,462 0,462 0,0 959,0 959,0 0,0 0,-959 0,-959zm-1683 -8249c0,0 0,7543 0,7543 0,0 -7543,0 -7543,0 0,0 7543,-7543 7543,-7543zm-480 1160c0,0 -5903,5903 -5903,5903 0,0 5903,0 5903,0 0,0 0,-5903 0,-5903zm-9626 4264c0,0 -2512,811 -2512,811 0,0 811,-2511 811,-2511 0,0 8075,-8066 8075,-8066 471,-471 1229,-471 1700,0 462,471 462,1229 0,1700 0,0 -8074,8066 -8074,8066zm-1762 61c0,0 1186,-375 1186,-375 0,0 -802,-811 -802,-811 0,0 -384,1186 -384,1186zm7796 -8807c0,0 -7177,7176 -7177,7176 0,0 1012,1021 1012,1021 0,0 7185,-7177 7185,-7177 0,0 -1020,-1020 -1020,-1020zm1700 -680c-288,-288 -741,-288 -1020,0 0,0 -340,340 -340,340 0,0 1020,1020 1020,1020 0,0 340,-340 340,-340 279,-288 279,-741 0,-1020z"/>
   </g>
  </g>
 </g>
</svg>
