<?xml version="1.0" encoding="UTF-8"?>
<!DOCTYPE svg PUBLIC "-//W3C//DTD SVG 1.1//EN" "http://www.w3.org/Graphics/SVG/1.1/DTD/svg11.dtd">
<!-- Creator: CorelDRAW X8 -->
<svg xmlns="http://www.w3.org/2000/svg" xml:space="preserve" width="160mm" height="160mm" version="1.1" style="shape-rendering:geometricPrecision; text-rendering:geometricPrecision; image-rendering:optimizeQuality; fill-rule:evenodd; clip-rule:evenodd"
viewBox="0 0 16000 16000"
 xmlns:xlink="http://www.w3.org/1999/xlink">
 <defs>
  <style type="text/css">
   <![CDATA[
    .fil0 {fill:black}
   ]]>
  </style>
 </defs>
 <g id="Camada_x0020_1">
  <metadata id="CorelCorpID_0Corel-Layer"/>
  <g id="_1726525738608">
   <g id="ic-administracao">
    <path class="fil0" d="M15189 15747c0,0 -14378,0 -14378,0 -174,0 -311,-137 -311,-302 0,-174 137,-302 311,-302 0,0 713,0 713,0 0,0 0,-2734 0,-2734 0,-449 375,-814 833,-814 0,0 1518,0 1518,0 457,0 832,365 832,814 0,0 0,2734 0,2734 0,0 1720,0 1720,0 0,0 0,-5268 0,-5268 0,-457 375,-814 832,-814 0,0 1518,0 1518,0 458,0 833,357 833,814 0,0 0,5268 0,5268 0,0 1719,0 1719,0 0,0 0,-9640 0,-9640 0,-448 375,-814 833,-814 0,0 1518,0 1518,0 457,0 832,366 832,814 0,0 0,9640 0,9640 0,0 677,0 677,0 174,0 311,128 311,302 0,165 -137,302 -311,302zm-11104 -3338c0,-110 -91,-211 -210,-211 0,0 -1518,0 -1518,0 -119,0 -220,101 -220,211 0,0 0,2734 0,2734 0,0 1948,0 1948,0 0,0 0,-2734 0,-2734zm4903 -2534c0,-119 -92,-210 -211,-210 0,0 -1518,0 -1518,0 -119,0 -210,91 -210,210 0,0 0,5268 0,5268 0,0 1939,0 1939,0 0,0 0,-5268 0,-5268zm4911 -4372c0,-110 -100,-210 -219,-210 0,0 -1518,0 -1518,0 -119,0 -211,100 -211,210 0,0 0,9640 0,9640 0,0 1948,0 1948,0 0,0 0,-9640 0,-9640zm302 -2890c-164,0 -302,-137 -302,-302 0,0 0,-1024 0,-1024 0,0 -3283,3210 -3283,3210 -119,119 -320,119 -439,0 0,0 -1153,-1134 -1153,-1134 0,0 -5341,5232 -5341,5232 -64,54 -146,82 -220,82 -82,0 -164,-28 -219,-82 -119,-119 -119,-311 0,-430 0,0 5561,-5442 5561,-5442 55,-55 137,-92 219,-92 83,0 165,37 220,92 0,0 1152,1134 1152,1134 0,0 3064,-2991 3064,-2991 0,0 -1161,0 -1161,0 -165,0 -311,-137 -311,-311 0,-165 146,-302 311,-302 0,0 1875,0 1875,0 0,0 9,0 18,0 82,0 165,27 229,92 64,64 100,146 91,228 0,9 0,9 0,18 0,0 0,1720 0,1720 0,165 -137,302 -311,302zm-11780 7116c-174,0 -311,-128 -311,-302 0,-165 137,-302 311,-302 164,0 302,137 302,302 0,174 -138,302 -302,302z"/>
   </g>
  </g>
 </g>
</svg>
