<?xml version="1.0" encoding="UTF-8"?>
<!DOCTYPE svg PUBLIC "-//W3C//DTD SVG 1.1//EN" "http://www.w3.org/Graphics/SVG/1.1/DTD/svg11.dtd">
<!-- Creator: CorelDRAW X8 -->
<svg xmlns="http://www.w3.org/2000/svg" xml:space="preserve" width="160mm" height="160mm" version="1.1" style="shape-rendering:geometricPrecision; text-rendering:geometricPrecision; image-rendering:optimizeQuality; fill-rule:evenodd; clip-rule:evenodd"
viewBox="0 0 16000 16000"
 xmlns:xlink="http://www.w3.org/1999/xlink">
 <defs>
  <style type="text/css">
   <![CDATA[
    .fil0 {fill:black}
   ]]>
  </style>
 </defs>
 <g id="Camada_x0020_1">
  <metadata id="CorelCorpID_0Corel-Layer"/>
  <g id="_1726525751440">
   <g id="ic-farmacia">
    <path class="fil0" d="M15331 5886c-140,141 -318,215 -514,215 -159,0 -318,-56 -449,-159 0,0 -8707,8708 -8707,8708 -580,580 -1347,898 -2161,898 -813,0 -1580,-318 -2151,-898 -1188,-1188 -1188,-3124 0,-4312 0,0 8707,-8716 8707,-8716 -102,-122 -159,-281 -159,-449 0,-187 75,-374 216,-505 130,-141 318,-216 505,-216 196,0 374,75 514,216 0,0 4199,4199 4199,4199 281,280 281,739 0,1019zm-336 -682c0,0 -4200,-4200 -4200,-4200 -46,-46 -112,-65 -177,-65 -66,0 -122,19 -169,65 -47,47 -65,103 -65,169 0,65 18,131 65,177 0,0 84,75 84,75 10,10 19,19 38,28 9,19 19,28 28,38 0,0 655,645 655,645 93,93 93,243 0,337 -94,103 -253,103 -346,0 0,0 -515,-505 -515,-505 0,0 -8707,8716 -8707,8716 -1001,1001 -1001,2628 0,3629 486,486 1131,748 1814,748 692,0 1338,-262 1824,-748 0,0 8698,-8707 8698,-8707 0,0 -2432,-2441 -2432,-2441 -103,-94 -103,-253 0,-346 94,-94 243,-94 337,0 0,0 2572,2572 2572,2572 19,9 28,28 37,37 19,9 28,28 38,47 0,0 75,75 75,75 46,46 102,65 168,65 65,0 131,-19 178,-65 93,-94 93,-253 0,-346zm-3321 1449c-140,131 -318,215 -514,215 -187,0 -374,-84 -505,-215 -290,-280 -290,-739 0,-1019 94,-103 243,-103 337,0 93,93 93,243 0,337 -94,93 -94,252 0,346 46,37 103,65 168,65 65,0 131,-28 168,-65 94,-94 94,-253 0,-346 -93,-94 -93,-244 0,-337 94,-103 253,-103 346,0 281,280 281,739 0,1019zm-6696 7314c-393,402 -917,617 -1478,617 -552,0 -1075,-215 -1468,-617 -814,-804 -814,-2132 0,-2946 0,0 1852,-1861 1852,-1861 93,-94 252,-94 346,0 93,93 93,252 0,346 0,0 -1861,1852 -1861,1852 -627,626 -627,1646 0,2272 299,300 701,468 1131,468 430,0 833,-168 1141,-468 0,0 4181,-4180 4181,-4180 -28,-10 -66,-19 -103,-19 -140,-28 -346,-65 -561,-281 -215,-215 -253,-420 -281,-570 -28,-122 -37,-206 -149,-309 -113,-112 -187,-121 -309,-149 -150,-28 -355,-66 -571,-281 -215,-215 -252,-421 -280,-570 -9,-29 -9,-66 -19,-94 0,0 -1646,1646 -1646,1646 -93,94 -243,94 -337,0 -93,-93 -93,-252 0,-346 0,0 1862,-1852 1862,-1852 37,-47 102,-75 168,-75 65,0 122,28 168,75 215,215 253,421 281,561 19,131 37,206 140,318 112,113 187,122 318,141 150,28 346,65 571,280 215,225 252,421 271,571 28,131 37,205 150,318 112,103 187,121 308,140 150,28 356,65 571,281 0,0 9,9 9,9 56,56 122,206 -19,346 0,0 -4386,4377 -4386,4377zm3517 -7043c-197,0 -375,-84 -515,-215 -280,-280 -280,-738 0,-1019 94,-94 253,-94 346,0 94,93 94,243 0,337 -47,46 -75,112 -75,168 0,65 28,131 75,168 47,47 103,75 169,75 65,0 121,-28 168,-75 47,-37 75,-103 75,-168 0,-56 -28,-122 -75,-168 -94,-94 -94,-244 0,-337 93,-94 252,-94 346,0 131,131 206,318 206,505 0,196 -75,374 -206,514 -140,131 -318,215 -514,215z"/>
   </g>
  </g>
 </g>
</svg>
