<?xml version="1.0" encoding="UTF-8"?>
<!DOCTYPE svg PUBLIC "-//W3C//DTD SVG 1.1//EN" "http://www.w3.org/Graphics/SVG/1.1/DTD/svg11.dtd">
<!-- Creator: CorelDRAW X8 -->
<svg xmlns="http://www.w3.org/2000/svg" xml:space="preserve" width="160mm" height="160mm" version="1.1" style="shape-rendering:geometricPrecision; text-rendering:geometricPrecision; image-rendering:optimizeQuality; fill-rule:evenodd; clip-rule:evenodd"
viewBox="0 0 16000 16000"
 xmlns:xlink="http://www.w3.org/1999/xlink">
 <defs>
  <style type="text/css">
   <![CDATA[
    .fil0 {fill:black}
   ]]>
  </style>
 </defs>
 <g id="Camada_x0020_1">
  <metadata id="CorelCorpID_0Corel-Layer"/>
  <g id="_1726525749744">
   <g id="ic-contabilidade">
    <path class="fil0" d="M4656 12061c-528,0 -957,536 -957,1195 0,659 429,1195 957,1195 528,0 956,-536 956,-1195 0,-659 -428,-1195 -956,-1195zm0 1910c-259,0 -478,-329 -478,-717 0,-388 219,-718 478,-718 260,0 478,330 478,718 0,390 -218,717 -478,717zm-2151 -954l478 0 0 478 -478 0 0 -478zm3821 0l478 0 0 478 -478 0 0 -478z"/>
    <path class="fil0" d="M13017 7761l0 -7166 -10034 0 0 10510 -2388 0 0 4300 8122 0 0 -1912 718 0 0 1912 5970 0 0 -7644 -2388 0zm-11943 3822l682 0c-88,335 -351,594 -682,682l0 -682 0 0zm0 3344l0 -683c335,88 594,351 682,683l-682 0zm7165 0l-682 0c87,-336 349,-595 682,-683l0 683 0 0zm0 -1175c-600,102 -1073,574 -1174,1175l-4817 0c-102,-601 -574,-1073 -1174,-1175l0 -994c600,-103 1072,-574 1174,-1175l4817 0c101,601 574,1072 1174,1175l0 994zm0 -1487c-335,-88 -595,-350 -682,-682l682 0 0 682 0 0zm1196 752l-718 0 0 -1912 -5257 0 0 -10031 9080 0 0 6687 -3105 0 0 5256zm5492 1910l-5017 0 0 -6688 5017 0 0 6687 0 1z"/>
    <path class="fil0" d="M10388 8717l0 1910 4061 0 0 -1910 -4061 0zm3583 1432l-3105 0 0 -953 3105 0 0 953zm-3583 956l478 0 0 478 -478 0 0 -478zm1195 0l478 0 0 478 -478 0 0 -478zm1196 0l477 0 0 478 -477 0 0 -478zm1192 0l478 0 0 478 -478 0 0 -478zm-3583 956l478 0 0 479 -478 0 0 -479zm1195 0l478 0 0 479 -478 0 0 -479zm1196 0l477 0 0 479 -477 0 0 -479zm1192 0l478 0 0 479 -478 0 0 -479zm-3583 956l478 0 0 478 -478 0 0 -478zm1195 0l478 0 0 478 -478 0 0 -478zm1196 0l477 0 0 478 -477 0 0 -478zm1192 0l478 0 0 478 -478 0 0 -478zm-3583 954l478 0 0 478 -478 0 0 -478zm1195 0l478 0 0 478 -478 0 0 -478zm1196 0l477 0 0 478 -477 0 0 -478zm1192 0l478 0 0 478 -478 0 0 -478zm-9793 -12181l0 3822 3344 0 0 -3822 -3344 0zm2866 3344l-2388 0 0 -2866 2388 0 0 2866zm1195 -1674l3583 0 0 479 -3583 0 0 -479zm0 1674l3583 0 0 478 -3583 0 0 -478zm-4061 1670l7644 0 0 479 -7644 0 0 -479zm0 1913l4539 0 0 479 -4539 0 0 -479z"/>
   </g>
  </g>
 </g>
</svg>
