<?xml version="1.0" encoding="UTF-8"?>
<!DOCTYPE svg PUBLIC "-//W3C//DTD SVG 1.1//EN" "http://www.w3.org/Graphics/SVG/1.1/DTD/svg11.dtd">
<!-- Creator: CorelDRAW X8 -->
<svg xmlns="http://www.w3.org/2000/svg" xml:space="preserve" width="160mm" height="160mm" version="1.1" style="shape-rendering:geometricPrecision; text-rendering:geometricPrecision; image-rendering:optimizeQuality; fill-rule:evenodd; clip-rule:evenodd"
viewBox="0 0 16000 16000"
 xmlns:xlink="http://www.w3.org/1999/xlink">
 <defs>
  <style type="text/css">
   <![CDATA[
    .fil0 {fill:black}
   ]]>
  </style>
 </defs>
 <g id="Camada_x0020_1">
  <metadata id="CorelCorpID_0Corel-Layer"/>
  <g id="_1726330729888">
   <g>
    <path class="fil0" d="M3075 2065c-627,0 -1137,510 -1137,1136 0,627 510,1137 1137,1137 627,0 1136,-510 1136,-1137 0,-626 -509,-1136 -1136,-1136zm0 1768c-348,0 -631,-283 -631,-632 0,-348 283,-631 631,-631 348,0 631,283 631,631 0,349 -283,632 -631,632z"/>
    <circle class="fil0" cx="13051" cy="2822" r="253"/>
    <circle class="fil0" cx="12041" cy="2822" r="253"/>
    <circle class="fil0" cx="13556" cy="3580" r="253"/>
    <circle class="fil0" cx="12546" cy="3580" r="253"/>
    <circle class="fil0" cx="11031" cy="2822" r="253"/>
    <circle class="fil0" cx="11536" cy="3580" r="253"/>
    <circle class="fil0" cx="10021" cy="2822" r="253"/>
    <circle class="fil0" cx="10526" cy="3580" r="253"/>
    <circle class="fil0" cx="9010" cy="2822" r="253"/>
    <circle class="fil0" cx="9515" cy="3580" r="253"/>
    <path class="fil0" d="M15577 4689l0 -2976c0,-642 -522,-1164 -1164,-1164l-12826 0c-642,0 -1164,522 -1164,1164l0 2976c0,371 178,698 449,911 -271,214 -449,541 -449,912l0 2976c0,371 178,698 449,911 -271,214 -449,541 -449,912l0 2976c0,642 522,1164 1164,1164l12826 0c642,0 1164,-522 1164,-1164l0 -2976c0,-371 -178,-698 -449,-912 271,-213 449,-540 449,-911l0 -2976c0,-371 -178,-698 -449,-911 271,-214 449,-541 449,-912zm-505 6622l0 2976c0,363 -296,658 -659,658l-12826 0c-363,1 -659,-295 -659,-658l0 -2976c0,-364 296,-659 659,-659l12826 0c363,0 659,295 659,659zm0 -4799l0 2976c0,363 -296,659 -659,659l-12826 0c-363,0 -659,-296 -659,-659l0 -2976c0,-363 296,-659 659,-659l12826 0c363,0 659,296 659,659zm-13485 -1164c-363,0 -659,-295 -659,-659l0 -2976c0,-363 296,-659 659,-659l12826 0c363,0 659,296 659,659l0 2976c0,363 -296,659 -659,659l-12826 0 0 0z"/>
    <path class="fil0" d="M3075 9137c627,0 1136,-510 1136,-1137 0,-627 -509,-1137 -1136,-1137 -627,0 -1137,510 -1137,1137 0,627 510,1137 1137,1137zm0 -1768c348,0 631,283 631,631 0,348 -283,631 -631,631 -348,0 -631,-283 -631,-631 0,-348 283,-631 631,-631z"/>
    <circle class="fil0" cx="13051" cy="7621" r="253"/>
    <circle class="fil0" cx="12041" cy="7621" r="253"/>
    <circle class="fil0" cx="13556" cy="8379" r="253"/>
    <circle class="fil0" cx="12546" cy="8379" r="253"/>
    <circle class="fil0" cx="11031" cy="7621" r="253"/>
    <circle class="fil0" cx="11536" cy="8379" r="253"/>
    <circle class="fil0" cx="10021" cy="7621" r="253"/>
    <circle class="fil0" cx="10526" cy="8379" r="253"/>
    <circle class="fil0" cx="9010" cy="7621" r="253"/>
    <circle class="fil0" cx="9515" cy="8379" r="253"/>
    <path class="fil0" d="M3075 13935c627,0 1136,-510 1136,-1136 0,-627 -509,-1137 -1136,-1137 -627,0 -1137,510 -1137,1137 0,626 510,1136 1137,1136zm0 -1768c348,0 631,283 631,632 0,348 -283,631 -631,631 -348,0 -631,-283 -631,-631 0,-349 283,-632 631,-632z"/>
    <circle class="fil0" cx="13051" cy="12420" r="253"/>
    <circle class="fil0" cx="12041" cy="12420" r="253"/>
    <circle class="fil0" cx="13556" cy="13178" r="253"/>
    <circle class="fil0" cx="12546" cy="13178" r="253"/>
    <circle class="fil0" cx="11031" cy="12420" r="253"/>
    <circle class="fil0" cx="11536" cy="13178" r="253"/>
    <circle class="fil0" cx="10021" cy="12420" r="253"/>
    <circle class="fil0" cx="10526" cy="13178" r="253"/>
    <circle class="fil0" cx="9010" cy="12420" r="253"/>
    <circle class="fil0" cx="9515" cy="13178" r="253"/>
   </g>
   <g>
   </g>
   <g>
   </g>
   <g>
   </g>
   <g>
   </g>
   <g>
   </g>
   <g>
   </g>
   <g>
   </g>
   <g>
   </g>
   <g>
   </g>
   <g>
   </g>
   <g>
   </g>
   <g>
   </g>
   <g>
   </g>
   <g>
   </g>
   <g>
   </g>
  </g>
 </g>
</svg>
