<?xml version="1.0" encoding="UTF-8"?>
<!DOCTYPE svg PUBLIC "-//W3C//DTD SVG 1.1//EN" "http://www.w3.org/Graphics/SVG/1.1/DTD/svg11.dtd">
<!-- Creator: CorelDRAW X8 -->
<svg xmlns="http://www.w3.org/2000/svg" xml:space="preserve" width="160mm" height="160mm" version="1.1" style="shape-rendering:geometricPrecision; text-rendering:geometricPrecision; image-rendering:optimizeQuality; fill-rule:evenodd; clip-rule:evenodd"
viewBox="0 0 16000 16000"
 xmlns:xlink="http://www.w3.org/1999/xlink">
 <defs>
  <style type="text/css">
   <![CDATA[
    .fil0 {fill:black}
   ]]>
  </style>
 </defs>
 <g id="Camada_x0020_1">
  <metadata id="CorelCorpID_0Corel-Layer"/>
  <g id="_1690528422464">
   <g id="ic-comercio">
    <g>
     <path class="fil0" d="M13087 11570c331,0 632,134 849,351 217,217 352,518 352,848 0,332 -135,632 -352,849 -217,217 -517,351 -849,351 -331,0 -632,-134 -849,-351 -217,-217 -351,-517 -351,-849 0,-330 135,-631 351,-848 217,-217 518,-351 849,-351l0 0zm501 699c-128,-128 -305,-207 -501,-207 -195,0 -372,79 -501,207 -127,128 -207,305 -207,500 0,196 80,373 207,500 129,129 306,208 501,208 196,0 373,-79 501,-208 128,-127 207,-304 207,-500 0,-195 -79,-372 -207,-500z"/>
     <path class="fil0" d="M6020 11265c-69,116 -220,153 -336,83 -115,-69 -152,-220 -83,-336l361 -594c46,-76 127,-118 210,-118l0 -3 7471 0c136,0 246,111 246,246 0,136 -110,246 -246,246l-7334 0 -289 476z"/>
     <path class="fil0" d="M5575 6975c-136,0 -246,-111 -246,-247 0,-136 110,-246 246,-246l9376 0 200 -1070c24,-133 153,-221 286,-197 133,25 221,153 197,287l-235 1251c-12,124 -118,222 -245,222l-9579 0 0 0z"/>
     <path class="fil0" d="M15392 5211c137,0 247,110 247,246 0,135 -110,246 -247,246l-10372 0c-136,0 -247,-111 -247,-246 0,-136 111,-246 247,-246l10372 0z"/>
     <path class="fil0" d="M5218 9518c-136,0 -247,-110 -247,-246 0,-136 111,-247 247,-247l9256 0 200 -1070c25,-133 154,-221 287,-196 134,25 221,153 197,287l-235 1251c-12,124 -117,222 -245,222l-9460 0 0 -1z"/>
     <path class="fil0" d="M2206 2031c136,0 246,110 246,246 0,135 -110,246 -246,246l-1837 0c-136,0 -246,-111 -246,-246 0,-136 110,-246 246,-246l1837 0z"/>
     <path class="fil0" d="M5444 9175c54,125 -4,270 -128,323 -125,53 -271,-5 -323,-129l-3013 -6995c-53,-125 4,-270 129,-323 124,-53 269,4 323,129l3012 6995z"/>
     <path class="fil0" d="M14916 7755c136,0 245,110 245,245 0,135 -109,245 -245,245l-8784 -1c-100,0 -187,-60 -225,-147l0 0 -556 -1271c-54,-125 3,-269 127,-323 124,-55 269,3 323,127l492 1124 8623 1z"/>
     <path class="fil0" d="M1151 3451c53,124 -3,268 -128,323 -123,54 -268,-3 -323,-128l-556 -1271c-54,-124 3,-269 127,-324 125,-53 269,3 323,128l557 1272z"/>
     <path class="fil0" d="M5245 5358c53,124 -3,269 -128,324 -123,54 -268,-3 -323,-128l-556 -1272c-54,-123 3,-269 127,-323 32,-13 65,-20 98,-20l0 -1 11168 0c136,0 246,111 246,246 0,136 -110,246 -246,246l-10793 0 407 928z"/>
     <path class="fil0" d="M1526 3303c136,0 246,110 246,246 0,135 -110,246 -246,246l-600 0c-136,0 -246,-111 -246,-246 0,-136 110,-246 246,-246l600 0z"/>
     <path class="fil0" d="M4820 11570c332,0 632,134 849,351 217,217 351,518 351,848 0,332 -134,632 -351,849 -217,217 -517,351 -849,351 -331,0 -631,-134 -848,-351 -217,-217 -351,-517 -351,-849 0,-330 134,-631 351,-848 217,-217 518,-351 848,-351l0 0zm501 699c-128,-128 -305,-207 -501,-207 -195,0 -372,79 -500,207 -128,128 -207,305 -207,500 0,196 79,373 207,500 128,129 305,208 500,208 196,0 373,-79 501,-208 128,-127 207,-304 207,-500 0,-195 -79,-372 -207,-500z"/>
    </g>
   </g>
  </g>
 </g>
</svg>
