<?xml version="1.0" encoding="UTF-8"?>
<!DOCTYPE svg PUBLIC "-//W3C//DTD SVG 1.1//EN" "http://www.w3.org/Graphics/SVG/1.1/DTD/svg11.dtd">
<!-- Creator: CorelDRAW X8 -->
<svg xmlns="http://www.w3.org/2000/svg" xml:space="preserve" width="160mm" height="160mm" version="1.1" style="shape-rendering:geometricPrecision; text-rendering:geometricPrecision; image-rendering:optimizeQuality; fill-rule:evenodd; clip-rule:evenodd"
viewBox="0 0 16000 16000"
 xmlns:xlink="http://www.w3.org/1999/xlink">
 <defs>
  <style type="text/css">
   <![CDATA[
    .fil0 {fill:black}
   ]]>
  </style>
 </defs>
 <g id="Camada_x0020_1">
  <metadata id="CorelCorpID_0Corel-Layer"/>
  <g id="_1690530867600">
   <g id="ic-informatica">
    <path class="fil0" d="M14794 12330c0,0 0,1484 0,1484 0,819 -666,1485 -1494,1485 0,0 -10600,0 -10600,0 -828,0 -1494,-666 -1494,-1485 0,0 0,-1484 0,-1484 0,0 5433,0 5433,0 0,0 0,-543 0,-543 0,0 -3806,0 -3806,0 -895,0 -1627,-732 -1627,-1627 0,0 0,-7841 0,-7841 0,-895 732,-1618 1627,-1618 0,0 10334,0 10334,0 895,0 1627,723 1627,1618 0,0 0,7841 0,7841 0,895 -732,1627 -1627,1627 0,0 -3540,0 -3540,0 0,0 0,543 0,543 0,0 5167,0 5167,0zm-1627 -1085c600,0 1085,-485 1085,-1085 0,0 0,-7841 0,-7841 0,-600 -485,-1075 -1085,-1075 0,0 -10334,0 -10334,0 -600,0 -1085,475 -1085,1075 0,0 0,7841 0,7841 0,600 485,1085 1085,1085 0,0 3806,0 3806,0 0,0 2988,0 2988,0 0,0 3540,0 3540,0zm-5985 542c0,0 0,543 0,543 0,0 1903,0 1903,0 0,0 0,-543 0,-543 0,0 -1903,0 -1903,0zm-543 1076c0,0 -4891,0 -4891,0 0,0 0,951 0,951 0,524 419,942 952,942 0,0 10600,0 10600,0 533,0 952,-418 952,-942 0,0 0,-951 0,-951 0,0 -4625,0 -4625,0 0,0 -2988,0 -2988,0zm6804 1627c0,0 -5167,0 -5167,0 0,0 0,-1351 0,-1351 0,0 5167,0 5167,0 0,0 0,1351 0,1351zm-552 -809c0,0 -4073,0 -4073,0 0,0 0,266 0,266 0,0 4073,0 4073,0 0,0 0,-266 0,-266zm-10058 676c-152,0 -267,-124 -267,-267 0,0 0,-542 0,-542 0,-152 115,-276 267,-276 152,0 276,124 276,276 0,0 0,542 0,542 0,143 -124,267 -276,267zm733 -9136c-48,48 -124,76 -191,76 -66,0 -142,-28 -190,-76 -114,-104 -114,-276 0,-380 0,0 2312,-2303 2312,-2303 105,-105 276,-105 381,0 114,105 114,276 0,380 0,0 -2312,2303 -2312,2303z"/>
   </g>
  </g>
 </g>
</svg>
