<?xml version="1.0" encoding="UTF-8"?>
<!DOCTYPE svg PUBLIC "-//W3C//DTD SVG 1.1//EN" "http://www.w3.org/Graphics/SVG/1.1/DTD/svg11.dtd">
<!-- Creator: CorelDRAW X8 -->
<svg xmlns="http://www.w3.org/2000/svg" xml:space="preserve" width="160mm" height="160mm" version="1.1" style="shape-rendering:geometricPrecision; text-rendering:geometricPrecision; image-rendering:optimizeQuality; fill-rule:evenodd; clip-rule:evenodd"
viewBox="0 0 16000 16000"
 xmlns:xlink="http://www.w3.org/1999/xlink">
 <defs>
  <style type="text/css">
   <![CDATA[
    .fil0 {fill:black}
   ]]>
  </style>
 </defs>
 <g id="Camada_x0020_1">
  <metadata id="CorelCorpID_0Corel-Layer"/>
  <g id="_1726330430976">
   <g id="ic-recursos">
    <path class="fil0" d="M13404 9105c-167,270 -455,428 -771,428 0,0 0,0 0,0 0,0 -148,0 -148,0 0,0 0,1031 0,1031 0,1040 -845,1885 -1886,1885 0,0 -891,0 -891,0 -84,0 -140,65 -140,139 0,0 0,2731 0,2731 0,102 -55,195 -139,251 -56,28 -111,46 -167,46 -37,0 -84,-9 -121,-28 0,0 -4477,-2006 -4477,-2006 -148,-65 -223,-241 -148,-390 65,-149 241,-214 390,-149 0,0 4059,1821 4059,1821 0,0 0,-2276 0,-2276 0,-408 334,-733 743,-733 0,0 891,0 891,0 716,0 1291,-586 1291,-1291 0,0 0,-1329 0,-1329 0,-74 38,-158 93,-213 56,-56 130,-84 205,-84 0,0 0,0 0,0 0,0 445,0 445,0 0,0 0,0 0,0 149,0 233,-102 251,-139 28,-47 84,-158 10,-288 0,0 -966,-1756 -966,-1756 -28,-46 -38,-92 -38,-148 0,0 0,-1235 0,-1235 0,-2425 -1978,-4394 -4411,-4394 -2434,0 -4412,1969 -4412,4394 0,0 0,863 0,863 0,966 306,1895 873,2675 37,56 56,112 56,177 0,0 0,2554 0,2554 0,167 -130,297 -298,297 -167,0 -297,-130 -297,-297 0,0 0,-2452 0,-2452 -613,-873 -929,-1895 -929,-2954 0,0 0,-863 0,-863 0,-2750 2248,-4988 5007,-4988 2767,0 5006,2238 5006,4988 0,0 0,1161 0,1161 0,0 929,1690 929,1690 158,279 148,604 -10,882zm-9678 3400c167,0 297,139 297,306 0,158 -130,297 -297,297 -167,0 -297,-139 -297,-297 0,-167 130,-306 297,-306zm6539 -4839c0,0 -520,520 -520,520 -242,241 -650,251 -947,18 0,0 -158,-130 -158,-130 -38,19 -65,28 -103,37 0,0 -18,205 -18,205 -47,371 -334,659 -678,659 0,0 -743,0 -743,0 -344,0 -641,-288 -678,-659 0,0 -28,-205 -28,-205 -28,-9 -65,-18 -102,-37 0,0 -158,130 -158,130 -297,233 -697,223 -948,-18 0,0 -520,-520 -520,-520 -241,-242 -250,-650 -18,-948 0,0 130,-158 130,-158 -19,-27 -28,-65 -37,-92 0,0 -205,-28 -205,-28 -380,-47 -659,-335 -659,-678 0,0 0,-734 0,-734 0,-344 279,-632 659,-678 0,0 205,-28 205,-28 9,-28 18,-65 37,-93 0,0 -130,-158 -130,-158 -232,-297 -223,-706 18,-947 0,0 520,-520 520,-520 251,-242 651,-251 948,-19 0,0 158,130 158,130 37,-18 74,-28 102,-46 0,0 28,-195 28,-195 37,-381 334,-660 678,-660 0,0 743,0 743,0 344,0 631,279 678,660 0,0 18,195 18,195 38,18 65,28 103,46 0,0 158,-130 158,-130 297,-232 705,-223 947,19 0,0 520,520 520,520 242,241 251,650 19,947 0,0 -130,158 -130,158 18,28 27,65 46,93 0,0 195,28 195,28 381,46 660,334 660,678 0,0 0,734 0,734 0,343 -279,631 -660,678 0,0 -195,28 -195,28 -19,27 -28,65 -46,92 0,0 130,158 130,158 232,298 232,706 -19,948zm65 -1821c84,-9 130,-56 130,-83 0,0 0,-734 0,-734 0,-37 -46,-84 -130,-93 0,0 -390,-37 -390,-37 -112,-19 -214,-102 -242,-214 -46,-121 -92,-241 -157,-362 -56,-102 -38,-223 37,-316 0,0 232,-306 232,-306 56,-65 56,-140 37,-158 0,0 -520,-520 -520,-520 -28,-19 -93,-19 -158,37 0,0 -306,232 -306,232 -93,74 -223,84 -326,37 -111,-65 -232,-111 -362,-158 -111,-28 -195,-130 -204,-241 0,0 -47,-390 -47,-390 -9,-75 -55,-130 -83,-130 0,0 -743,0 -743,0 -37,0 -84,55 -93,130 0,0 -47,390 -47,390 -9,111 -92,213 -204,241 -121,47 -241,93 -362,158 -102,47 -232,37 -325,-37 0,0 -297,-232 -297,-232 -65,-56 -140,-56 -158,-37 0,0 -530,520 -530,520 -18,18 -18,93 37,158 0,0 242,306 242,306 74,93 84,214 28,316 -56,121 -112,241 -149,362 -37,112 -139,195 -251,214 0,0 -380,37 -380,37 -84,9 -140,56 -140,93 0,0 0,734 0,734 0,27 56,74 140,83 0,0 380,56 380,56 112,9 214,93 251,195 37,130 84,251 149,372 56,102 46,222 -28,315 0,0 -242,307 -242,307 -55,65 -55,130 -37,158 0,0 530,520 530,520 18,18 93,18 158,-37 0,0 297,-242 297,-242 56,-37 121,-56 186,-56 46,0 92,10 139,28 121,65 241,112 362,149 112,37 195,139 204,251 0,0 47,381 47,381 9,83 56,139 93,139 0,0 743,0 743,0 28,0 74,-56 83,-139 0,0 47,-381 47,-381 9,-112 93,-214 204,-251 130,-37 251,-84 362,-149 112,-46 233,-37 326,28 0,0 306,242 306,242 65,55 130,55 158,37 0,0 520,-520 520,-520 19,-28 19,-93 -37,-158 0,0 -232,-307 -232,-307 -75,-93 -93,-213 -37,-315 65,-121 111,-242 157,-372 28,-102 130,-186 242,-195 0,0 390,-56 390,-56zm-2861 1050c-836,0 -1514,-669 -1514,-1496 0,-836 678,-1514 1514,-1514 827,0 1505,678 1505,1514 0,827 -678,1496 -1505,1496zm0 -2415c-511,0 -919,409 -919,919 0,502 408,901 919,901 502,0 911,-399 911,-901 0,-510 -409,-919 -911,-919z"/>
   </g>
  </g>
 </g>
</svg>
