<?xml version="1.0" encoding="UTF-8"?>
<!DOCTYPE svg PUBLIC "-//W3C//DTD SVG 1.1//EN" "http://www.w3.org/Graphics/SVG/1.1/DTD/svg11.dtd">
<!-- Creator: CorelDRAW X8 -->
<svg xmlns="http://www.w3.org/2000/svg" xml:space="preserve" width="160mm" height="160mm" version="1.1" style="shape-rendering:geometricPrecision; text-rendering:geometricPrecision; image-rendering:optimizeQuality; fill-rule:evenodd; clip-rule:evenodd"
viewBox="0 0 16000 16000"
 xmlns:xlink="http://www.w3.org/1999/xlink">
 <defs>
  <style type="text/css">
   <![CDATA[
    .fil0 {fill:black}
   ]]>
  </style>
 </defs>
 <g id="Camada_x0020_1">
  <metadata id="CorelCorpID_0Corel-Layer"/>
  <g id="_1690530879344">
   <g id="ic-informatica-internet">
    <path class="fil0" d="M14337 2148l-12674 0c-639,0 -1159,519 -1159,1158l0 9388c0,639 520,1158 1159,1158l12674 0c639,0 1159,-519 1159,-1158l0 -9388c0,-639 -520,-1158 -1159,-1158zm-12674 439l12674 0c396,0 718,322 718,719l0 719 -14110 0 0 -719c0,-397 322,-719 718,-719zm12674 10826l-12674 0c-396,0 -718,-322 -718,-719l0 -8229 14110 0 0 8229c0,397 -322,719 -718,719l0 0z"/>
    <path class="fil0" d="M1663 3526c58,0 114,-23 155,-64 41,-41 65,-98 65,-156 0,-57 -24,-115 -65,-156 -41,-41 -96,-64 -155,-64 -58,0 -114,23 -155,64 -41,41 -64,99 -64,156 0,58 23,115 64,156 41,41 97,64 155,64l0 0zm704 0c58,0 114,-23 155,-64 41,-41 65,-98 65,-156 0,-57 -24,-115 -65,-156 -41,-41 -96,-64 -155,-64 -57,0 -114,23 -155,64 -41,41 -64,99 -64,156 0,58 23,115 64,156 41,41 98,64 155,64l0 0zm704 0c58,0 115,-23 156,-64 41,-41 64,-98 64,-156 0,-57 -23,-115 -64,-156 -41,-41 -97,-64 -156,-64 -57,0 -114,23 -155,64 -41,41 -64,99 -64,156 0,58 23,115 64,156 41,41 98,64 155,64l0 0zm5935 2621c-22,-6 -45,-10 -67,-10 -96,0 -181,62 -209,153l-1644 5164c-6,21 -10,44 -10,66 0,122 98,220 220,220 95,0 181,-62 209,-153l1644 -5164c6,-21 10,-43 10,-66 0,-96 -62,-181 -153,-210l0 0zm1028 524c-43,-41 -98,-65 -157,-65 -57,0 -114,24 -155,65 -41,42 -64,97 -64,156 0,58 23,114 64,155l1957 1957 -1957 1956c-41,42 -64,98 -64,156 0,121 98,220 219,220 0,0 1,0 1,0 58,0 115,-23 156,-64l2112 -2113c41,-41 64,-97 64,-155 0,-59 -23,-114 -64,-156l-2112 -2112 0 0zm-3521 0c-42,-41 -97,-65 -156,-65 -58,0 -114,24 -155,65l-2113 2112c-41,42 -64,97 -64,156 0,58 23,114 64,155l2113 2113c43,43 99,64 155,64 56,0 113,-21 156,-64 41,-41 64,-98 64,-156 0,-58 -23,-114 -64,-156l-1957 -1956 1957 -1957c41,-41 64,-97 64,-155 0,-59 -23,-114 -64,-156l0 0zm-2503 -3145l8919 0c122,0 219,-99 219,-220 0,-122 -97,-220 -219,-220l-8919 0c-121,0 -220,98 -220,220 0,121 99,220 220,220l0 0zm9858 0l469 0c122,0 219,-99 219,-220 0,-122 -97,-220 -219,-220l-469 0c-122,0 -221,98 -221,220 0,121 99,220 221,220l0 0z"/>
   </g>
  </g>
 </g>
</svg>
