<?xml version="1.0" encoding="UTF-8"?>
<!DOCTYPE svg PUBLIC "-//W3C//DTD SVG 1.1//EN" "http://www.w3.org/Graphics/SVG/1.1/DTD/svg11.dtd">
<!-- Creator: CorelDRAW X8 -->
<svg xmlns="http://www.w3.org/2000/svg" xml:space="preserve" width="160mm" height="160mm" version="1.1" style="shape-rendering:geometricPrecision; text-rendering:geometricPrecision; image-rendering:optimizeQuality; fill-rule:evenodd; clip-rule:evenodd"
viewBox="0 0 16000 16000"
 xmlns:xlink="http://www.w3.org/1999/xlink">
 <defs>
  <style type="text/css">
   <![CDATA[
    .fil0 {fill:black}
   ]]>
  </style>
 </defs>
 <g id="Camada_x0020_1">
  <metadata id="CorelCorpID_0Corel-Layer"/>
  <g id="_1690530878064">
   <g id="ic-marketing">
    <path class="fil0" d="M11037 2448l-759 0c-357,0 -657,253 -727,589 -583,292 -3444,1647 -7212,2143 -211,28 -392,143 -510,305l-663 0c-410,0 -743,334 -743,743l0 1519c0,410 333,743 743,743l663 0c118,162 299,277 510,305 38,6 76,10 113,16l1167 4197c89,320 384,544 716,544l1386 0c0,0 0,0 1,0 0,0 0,0 1,0l252 0c131,0 237,-106 237,-237 0,-131 -106,-237 -237,-237l-73 0 -1058 -3812c2489,607 4261,1449 4707,1672 70,336 370,589 727,589l759 0c410,0 744,-333 744,-743l0 -7593c0,-410 -334,-743 -744,-743zm-9349 5568l-522 0c-148,0 -269,-121 -269,-269l0 -1519c0,-148 121,-269 269,-269l522 0 0 2057zm3722 5062l-1075 0c-121,0 -227,-81 -259,-197l-1109 -3994c466,75 918,162 1350,257l1093 3934zm5896 -2294c0,148 -120,269 -269,269l-759 0c-148,0 -269,-121 -269,-269l0 -1c0,0 0,0 0,-1l0 -5566c0,-131 -106,-238 -237,-238 -131,0 -237,107 -237,238l0 5186c-934,-443 -3658,-1620 -7133,-2078 -136,-17 -239,-132 -239,-266l0 -2141c0,-134 103,-248 239,-267 3475,-457 6198,-1634 7133,-2077l0 630c0,131 106,237 237,237 131,0 237,-106 237,-237l0 -1010c0,-1 0,-1 0,-1l0 -1c0,-148 121,-269 269,-269l759 0c149,0 269,121 269,269l0 7593z"/>
    <path class="fil0" d="M15340 6750l-2531 0c-131,0 -237,107 -237,238 0,130 106,237 237,237l2531 0c131,0 237,-107 237,-237 0,-131 -106,-238 -237,-238z"/>
    <path class="fil0" d="M14798 4363c-51,-121 -190,-177 -311,-124l-252 108c-121,52 -177,191 -126,311 39,90 127,145 218,145 32,0 64,-7 94,-20l253 -109c121,-51 177,-190 124,-311z"/>
    <path class="fil0" d="M13786 4797c-51,-121 -190,-177 -311,-125l-760 325c-119,52 -175,192 -124,313 38,89 127,143 218,143 32,0 63,-6 93,-19l760 -326c121,-51 177,-191 124,-311z"/>
    <path class="fil0" d="M14674 9300l-254 -109c-121,-51 -259,5 -311,126 -52,119 4,259 124,311l254 108c31,14 62,20 93,20 93,0 180,-54 218,-144 53,-121 -3,-259 -124,-312z"/>
    <path class="fil0" d="M13662 8867l-760 -326c-120,-51 -259,5 -311,125 -51,120 5,260 124,312l760 324c30,14 61,20 93,20 92,0 180,-54 218,-144 51,-121 -5,-260 -124,-311z"/>
   </g>
  </g>
 </g>
</svg>
