<?xml version="1.0" encoding="UTF-8"?>
<!DOCTYPE svg PUBLIC "-//W3C//DTD SVG 1.1//EN" "http://www.w3.org/Graphics/SVG/1.1/DTD/svg11.dtd">
<!-- Creator: CorelDRAW X8 -->
<svg xmlns="http://www.w3.org/2000/svg" xml:space="preserve" width="210mm" height="297mm" version="1.1" style="shape-rendering:geometricPrecision; text-rendering:geometricPrecision; image-rendering:optimizeQuality; fill-rule:evenodd; clip-rule:evenodd"
viewBox="0 0 21000 29700"
 xmlns:xlink="http://www.w3.org/1999/xlink">
 <defs>
  <style type="text/css">
   <![CDATA[
    .fil0 {fill:#fff}
   ]]>
  </style>
 </defs>
 <g id="Camada_x0020_1">
  <metadata id="CorelCorpID_0Corel-Layer"/>
  <g id="_2025245306976">
   <g>
    <path class="fil0" d="M16092 13622c0,-664 -541,-1205 -1206,-1205l-2216 0c538,-605 890,-1294 958,-1912 42,-378 -75,-753 -320,-1029 -224,-252 -530,-392 -862,-395 -4,-1 -8,-1 -12,-1 -321,0 -622,124 -850,350 -227,225 -353,525 -355,846 -11,70 -135,312 -437,599 -247,236 -674,559 -1305,764 -248,80 -474,228 -672,439 -104,111 -260,264 -453,418 -95,-50 -203,-79 -317,-79l-2104 0c-375,0 -680,305 -680,679l0 5612c0,375 305,680 680,680l2104 0c255,0 478,-142 594,-351l5370 0c568,0 1030,-462 1030,-1030 0,-191 -52,-370 -143,-524 296,-181 494,-507 494,-879 0,-191 -52,-370 -143,-524 296,-181 494,-507 494,-879 0,-215 -66,-415 -180,-580 320,-217 531,-584 531,-999zm-1206 548l-175 0c-182,0 -329,148 -329,329 0,182 147,329 329,329 205,0 372,167 372,373 0,205 -167,372 -372,372l-351 0c-182,0 -329,148 -329,329 0,182 147,329 329,329 205,0 372,167 372,373 0,205 -167,372 -372,372l-351 0c-182,0 -329,148 -329,329 0,182 147,329 329,329 206,0 373,167 373,373 0,205 -167,372 -373,372l-5285 0 0 -3178c0,-182 -147,-329 -328,-329 -182,0 -329,147 -329,329l0 3507c0,12 -10,22 -22,22l-2104 0c-13,0 -22,-10 -22,-22l0 -5612c0,-12 9,-22 22,-22l2104 0c12,0 22,10 22,22l0 702c0,181 147,329 329,329 181,0 328,-148 328,-329l0 -702c0,-16 -1,-31 -2,-47 247,-191 444,-384 572,-521 122,-129 255,-218 396,-264 774,-251 1295,-656 1595,-951 377,-370 602,-755 602,-1031 0,-146 57,-283 160,-385 105,-104 243,-159 393,-159 184,2 306,96 376,175 120,135 179,329 158,520 -71,653 -594,1461 -1331,2057 -108,88 -149,234 -103,365 47,132 171,219 310,219l3036 0c302,0 548,246 548,548 0,303 -246,548 -548,548z"/>
   </g>
  </g>
  <g id="_2025245304480">
   <g>
    <path class="fil0" d="M6993 17323c-182,0 -331,149 -331,331 0,182 149,331 331,331 181,0 330,-149 330,-331 0,-181 -149,-331 -330,-331z"/>
   </g>
  </g>
  <g id="_2025245303200">
   <g>
    <path class="fil0" d="M20414 14850l565 -1495c41,-108 22,-231 -51,-322l-999 -1247 75 -1596c5,-116 -51,-226 -148,-290l-1335 -877 -422 -1542c-31,-112 -118,-199 -230,-230l-1542 -422 -877 -1335c-64,-97 -174,-153 -290,-148l-1596 75 -1247 -999c-91,-72 -214,-92 -322,-51l-1495 565 -1495 -565c-108,-41 -231,-21 -322,51l-1247 999 -1596 -75c-116,-5 -226,51 -290,148l-877 1336 -1542 421c-112,31 -199,118 -230,230l-421 1542 -1336 877c-97,64 -153,174 -148,290l75 1596 -999 1247c-72,91 -92,214 -51,322l565 1495 -565 1495c-41,108 -21,231 51,322l999 1247 -75 1596c-5,116 51,226 148,290l1335 877 422 1542c31,112 118,199 230,230l1542 422 877 1335c64,97 174,153 290,148l1596 -75 1247 999c91,72 214,92 322,51l1495 -565 1495 565c37,14 77,21 116,21 74,0 146,-25 206,-72l1247 -999 1596 75c116,5 226,-51 290,-148l877 -1335 1542 -422c112,-31 199,-118 230,-230l422 -1542 1335 -877c97,-64 153,-174 148,-290l-75 -1596 999 -1247c72,-91 92,-214 51,-322l-565 -1495zm-659 116l542 1436 -959 1197c-50,63 -76,141 -72,221l72 1533 -1282 843c-67,44 -116,111 -137,188l-405 1480 -1480 405c-77,21 -144,70 -188,137l-843 1282 -1533 -72c-80,-4 -158,22 -221,72l-1197 959 -1436 -542c-37,-14 -77,-21 -116,-21 -39,0 -79,7 -116,21l-1436 542 -1197 -959c-63,-50 -142,-76 -221,-72l-1533 72 -843 -1282c-44,-67 -111,-116 -188,-137l-1480 -405 -405 -1480c-21,-77 -70,-144 -137,-188l-1282 -843 72 -1533c4,-80 -22,-158 -72,-221l-959 -1197 542 -1436c29,-75 29,-157 0,-232l-542 -1436 959 -1197c50,-63 76,-141 72,-221l-72 -1533 1282 -843c67,-44 116,-111 137,-188l405 -1480 1480 -405c77,-21 144,-70 188,-137l843 -1282 1533 72c79,4 158,-22 221,-72l1197 -959 1436 542c75,29 157,29 232,0l1436 -542 1197 959c63,50 141,76 221,72l1533 -72 843 1282c44,67 111,116 188,137l1480 405 405 1480c21,77 70,144 137,188l1282 843 -72 1533c-4,80 22,158 72,221l959 1197 -542 1436c-28,75 -28,157 0,232z"/>
   </g>
  </g>
  <g id="_2025245303328">
   <g>
    <path class="fil0" d="M16678 9172c-81,-89 -166,-177 -252,-263 -86,-86 -174,-170 -263,-252 -134,-123 -342,-114 -465,20 -123,133 -114,341 20,464 82,76 164,154 243,233 79,79 157,161 233,243 65,71 153,107 242,107 80,0 159,-29 222,-87 134,-123 143,-331 20,-465z"/>
   </g>
  </g>
  <g id="_2025245304736">
   <g>
    <path class="fil0" d="M14995 7759c-1586,-1010 -3495,-1459 -5375,-1264 -1909,198 -3708,1055 -5067,2414 -1496,1496 -2367,3483 -2452,5595 -85,2100 610,4138 1958,5740 65,77 158,117 252,117 75,0 150,-25 211,-77 139,-117 157,-324 40,-463 -1242,-1476 -1883,-3355 -1804,-5290 79,-1947 881,-3778 2260,-5157 1252,-1253 2911,-2043 4669,-2225 1734,-180 3494,234 4955,1165 153,98 356,53 454,-101 97,-153 52,-356 -101,-454z"/>
   </g>
  </g>
  <g id="_2025245301920">
   <g>
    <path class="fil0" d="M17576 10340c-98,-153 -301,-198 -454,-101 -154,98 -199,301 -101,454 931,1461 1345,3221 1165,4955 -182,1758 -972,3417 -2225,4669 -1378,1379 -3210,2181 -5156,2260 -1935,79 -3815,-562 -5291,-1804 -139,-117 -346,-99 -463,40 -117,139 -99,346 40,463 1514,1274 3419,1965 5396,1965 115,0 229,-2 344,-7 2112,-85 4099,-956 5595,-2452 1359,-1359 2217,-3158 2414,-5066 195,-1881 -254,-3790 -1264,-5376z"/>
   </g>
  </g>
  <g id="_2025245301536">
  </g>
  <g id="_2025245302208">
  </g>
  <g id="_2025245301792">
  </g>
  <g id="_2025245301664">
  </g>
  <g id="_2025245301728">
  </g>
  <g id="_2025245303008">
  </g>
  <g id="_2025245302688">
  </g>
  <g id="_2025245300800">
  </g>
  <g id="_2025245300544">
  </g>
  <g id="_2025245299776">
  </g>
  <g id="_2025245299648">
  </g>
  <g id="_2025245299072">
  </g>
  <g id="_2025245299040">
  </g>
  <g id="_2025245299808">
  </g>
  <g id="_2025245298976">
  </g>
 </g>
</svg>
