<?xml version="1.0" encoding="UTF-8"?>
<!DOCTYPE svg PUBLIC "-//W3C//DTD SVG 1.1//EN" "http://www.w3.org/Graphics/SVG/1.1/DTD/svg11.dtd">
<!-- Creator: CorelDRAW X8 -->
<svg xmlns="http://www.w3.org/2000/svg" xml:space="preserve" width="210mm" height="297mm" version="1.1" style="shape-rendering:geometricPrecision; text-rendering:geometricPrecision; image-rendering:optimizeQuality; fill-rule:evenodd; clip-rule:evenodd"
viewBox="0 0 21000 29700"
 xmlns:xlink="http://www.w3.org/1999/xlink">
 <defs>
  <style type="text/css">
   <![CDATA[
    .fil0 {fill:#fff}
   ]]>
  </style>
 </defs>
 <g id="Camada_x0020_1">
  <metadata id="CorelCorpID_0Corel-Layer"/>
  <g id="_2025245410880">
   <path class="fil0" d="M15103 15528l-9206 0c-532,0 -965,433 -965,966l0 5918c0,532 433,965 965,965l9206 0c532,0 965,-433 965,-965l0 -5918c0,-533 -433,-966 -965,-966zm-9206 617l9206 0c192,0 349,156 349,349l0 1007 -9904 0 0 -1007c0,-193 157,-349 349,-349zm1315 3287c193,0 350,157 350,350l0 1006 -699 0 0 -1006c0,-193 157,-350 349,-350zm7891 3329l-9206 0c-192,0 -349,-157 -349,-349l0 -4295 1356 0 0 749c-382,129 -657,491 -657,916l0 1315c0,170 138,308 308,308l1315 0c170,0 308,-138 308,-308l0 -1315c0,-425 -276,-787 -657,-916l0 -749 7931 0 0 4295c0,192 -157,349 -349,349z"/>
   <path class="fil0" d="M7541 13843l5918 0c170,0 308,-138 308,-308l0 -3027c0,-438 -212,-840 -568,-1075 -803,-529 -1736,-809 -2699,-809 -963,0 -1896,280 -2699,809 -356,235 -568,637 -568,1075l0 3027c0,170 138,308 308,308zm308 -3335c0,-230 109,-440 292,-560 701,-463 1517,-708 2359,-708 842,0 1658,245 2359,708 183,120 292,330 292,560l0 2719 -5302 0 0 -2719z"/>
   <path class="fil0" d="M11486 9939l-1972 0c-171,0 -309,138 -309,308 0,170 138,308 309,308l1972 0c171,0 309,-138 309,-308 0,-170 -138,-308 -309,-308z"/>
   <path class="fil0" d="M18390 15528l-349 0 0 -1993c0,-1098 -236,-2143 -660,-3085 1,-12 3,-25 3,-38l0 -3452c0,-533 -434,-966 -966,-966l-986 0c-533,0 -966,433 -966,966l0 164c-327,-203 -670,-382 -1028,-534l0 -945c0,-714 -580,-1295 -1294,-1295l-3288 0c-714,0 -1294,581 -1294,1295l0 945c-358,152 -701,331 -1028,534l0 -164c0,-533 -433,-966 -965,-966l-987 0c-532,0 -966,433 -966,966l0 3452c0,13 2,26 3,38 -424,942 -660,1987 -660,3085l0 1993 -349 0c-533,0 -966,433 -966,966l0 5918c0,532 433,965 966,965l513 0c400,1148 1492,1973 2774,1973l9206 0c1282,0 2374,-825 2774,-1973l513 0c533,0 966,-433 966,-965l0 -5918c0,-533 -433,-966 -966,-966zm0 617c193,0 350,156 350,349l0 1007 -699 0 0 -1356 349 0zm-7890 -9535c3715,0 6756,2941 6917,6617l-376 0c-179,0 -328,-140 -347,-324 -154,-1527 -866,-2939 -2006,-3975 -1148,-1044 -2635,-1619 -4188,-1619 -1553,0 -3040,575 -4188,1619 -1140,1036 -1852,2448 -2006,3975 -19,185 -168,324 -347,324l-376 0c161,-3676 3202,-6617 6917,-6617zm4582 350c0,-193 157,-350 350,-350l986 0c192,0 349,157 349,350l0 2385c-460,-686 -1030,-1293 -1685,-1795l0 -590zm-6904 -1315c0,-374 304,-679 678,-679l3288 0c374,0 678,305 678,679l0 715c-732,-237 -1512,-366 -2322,-366 -810,0 -1590,129 -2322,366l0 -715zm-3945 1315c0,-193 157,-350 349,-350l986 0c193,0 350,157 350,350l0 590c-655,502 -1225,1109 -1685,1795l0 -2385zm-1623 9185l349 0 0 1356 -699 0 0 -1007c0,-193 157,-349 350,-349zm0 6616c-193,0 -350,-157 -350,-349l0 -4295 699 0 0 4295c0,118 8,234 21,349l-370 0zm12493 1973l-9206 0c-1280,0 -2322,-1042 -2322,-2322l0 -8569 384 0c497,0 909,-377 960,-878 139,-1375 781,-2647 1808,-3581 1034,-941 2374,-1459 3773,-1459 1399,0 2739,518 3773,1459 1027,934 1669,2206 1808,3581 51,501 463,878 960,878l384 0 0 8569c0,1280 -1042,2322 -2322,2322zm3287 -1973l-370 0c13,-115 21,-231 21,-349l0 -4295 699 0 0 4295c0,192 -157,349 -350,349z"/>
  </g>
  <g id="_2025245410656">
  </g>
  <g id="_2025245410816">
  </g>
  <g id="_2025245411552">
  </g>
  <g id="_2025245409440">
  </g>
  <g id="_2025245409632">
  </g>
  <g id="_2025245408512">
  </g>
  <g id="_2025245408608">
  </g>
  <g id="_2025245408576">
  </g>
  <g id="_2025245408352">
  </g>
  <g id="_2025245407552">
  </g>
  <g id="_2025245407264">
  </g>
  <g id="_2025245406944">
  </g>
  <g id="_2025245407200">
  </g>
  <g id="_2025245406368">
  </g>
  <g id="_2025245406880">
  </g>
 </g>
</svg>
