<?xml version="1.0" encoding="UTF-8"?>
<!DOCTYPE svg PUBLIC "-//W3C//DTD SVG 1.1//EN" "http://www.w3.org/Graphics/SVG/1.1/DTD/svg11.dtd">
<!-- Creator: CorelDRAW X8 -->
<svg xmlns="http://www.w3.org/2000/svg" xml:space="preserve" width="210mm" height="297mm" version="1.1" style="shape-rendering:geometricPrecision; text-rendering:geometricPrecision; image-rendering:optimizeQuality; fill-rule:evenodd; clip-rule:evenodd"
viewBox="0 0 21000 29700"
 xmlns:xlink="http://www.w3.org/1999/xlink">
 <defs>
  <style type="text/css">
   <![CDATA[
    .fil0 {fill:#fff}
   ]]>
  </style>
 </defs>
 <g id="Camada_x0020_1">
  <metadata id="CorelCorpID_0Corel-Layer"/>
  <g id="_2025242168128">
   <g>
    <path class="fil0" d="M16311 11474c-187,-1395 -875,-2678 -1935,-3613 -1071,-944 -2447,-1464 -3876,-1464 -1428,0 -2805,520 -3875,1463 -1061,935 -1748,2218 -1935,3613 -23,168 95,323 264,346 168,23 323,-96 345,-264 348,-2590 2584,-4543 5201,-4543 2618,0 4854,1954 5201,4544 21,155 153,267 304,267 14,0 28,-1 42,-3 168,-22 286,-177 264,-346z"/>
   </g>
  </g>
  <g id="_2025242168640">
   <g>
    <path class="fil0" d="M16051 12644c-169,-21 -323,99 -343,268 -325,2620 -2564,4596 -5208,4596 -2646,0 -4885,-1978 -5208,-4600 -21,-169 -174,-289 -343,-268 -168,21 -288,174 -268,343 361,2930 2862,5140 5819,5140 2954,0 5456,-2208 5818,-5136 21,-169 -99,-322 -267,-343z"/>
   </g>
  </g>
  <g id="_2025242165472">
   <g>
    <path class="fil0" d="M12280 14200l-690 0 0 -5276c0,-219 -177,-397 -396,-397l-1037 0c-93,0 -184,33 -255,93l-1884 1581c-165,138 -190,379 -58,548l618 791c66,84 164,139 270,150 106,11 213,-21 295,-89l430 -355 0 2954 -871 0 0 0c-218,0 -396,178 -396,396l0 941c0,218 178,396 396,396l3578 0c218,0 396,-178 396,-396l0 -941c0,-218 -178,-396 -396,-396zm-219 1118l-3140 0 0 -503 870 0c219,0 397,-178 397,-396l0 -3638c0,-156 -87,-293 -228,-359 -140,-66 -302,-46 -421,53l-615 509 -349 -447 1661 -1395 739 0 0 5277c0,218 178,396 397,396l689 0 0 503z"/>
   </g>
  </g>
  <g id="_2025242166112">
   <g>
    <path class="fil0" d="M18842 21950l-2772 -4335c312,-65 594,-241 787,-498 224,-295 313,-674 245,-1038 -58,-309 98,-622 379,-762 332,-165 580,-464 681,-820 102,-357 48,-742 -147,-1057 -165,-267 -133,-615 79,-847 249,-274 373,-643 339,-1011 -35,-370 -224,-709 -520,-933 -250,-189 -346,-525 -232,-818 133,-345 115,-734 -50,-1065 -165,-332 -464,-581 -820,-682 -302,-86 -513,-365 -513,-679 0,-370 -157,-726 -431,-976 -274,-249 -643,-373 -1012,-339 -312,29 -609,-155 -723,-448 -134,-345 -409,-620 -754,-754 -346,-134 -734,-116 -1066,49 -281,140 -625,76 -836,-156 -250,-274 -605,-431 -976,-431 -371,0 -726,157 -976,431 -211,232 -555,296 -836,156 -332,-165 -720,-183 -1066,-49 -345,134 -620,409 -754,754 -114,293 -411,477 -723,448 -370,-34 -738,89 -1012,339 -274,250 -431,606 -431,976 0,314 -211,593 -513,679 -356,101 -655,350 -820,681 -166,332 -184,721 -50,1066 114,293 18,629 -232,818 -296,224 -485,563 -520,932 -34,369 90,738 339,1012 212,232 244,580 79,847 -195,315 -249,700 -147,1057 101,356 349,655 681,820 281,140 437,453 379,762 -68,364 21,743 245,1038 193,257 475,433 787,498l-2772 4335c-102,159 -104,359 -6,521 98,162 277,252 465,236l2705 -238 919 2555c64,178 221,302 409,323 19,2 38,3 56,3 168,0 323,-84 415,-228l3379 -5286 3379 5286c92,144 247,228 415,228 18,0 37,-1 56,-3 188,-21 345,-145 409,-323l919 -2555 2705 238c189,16 367,-74 465,-236 98,-162 96,-362 -6,-521zm-16032 122l2702 -4226c96,97 165,223 191,364 50,265 180,507 369,695l-1924 3049 -1338 118zm3176 425l-117 -325c-76,-211 -285,-344 -508,-324l-443 39 1680 -2663c246,79 513,85 765,13 213,-60 438,-15 610,111l-1987 3149zm750 2085l-486 -1351 2146 -3401c178,161 400,272 640,317 182,34 367,29 543,-12l-2843 4447zm3956 -5421c-20,-4 -40,-6 -60,-7 -44,-4 -88,-7 -132,-7 -44,0 -88,3 -132,7 -20,1 -40,3 -60,7 -215,31 -423,115 -604,251 -160,121 -357,167 -555,131 -197,-37 -364,-152 -470,-323 -23,-36 -47,-70 -72,-103 -4,-6 -8,-11 -13,-15 -327,-417 -882,-604 -1399,-457 -194,55 -394,27 -565,-78 -171,-106 -285,-273 -322,-471 -79,-421 -358,-768 -730,-947 -19,-11 -39,-20 -59,-27 -122,-51 -252,-85 -388,-98 -200,-19 -376,-117 -498,-277 -121,-161 -167,-358 -130,-555 108,-577 -184,-1163 -710,-1425 -179,-90 -309,-246 -364,-439 -55,-193 -27,-394 79,-564 309,-500 249,-1151 -147,-1585 -135,-149 -200,-341 -181,-541 18,-200 117,-377 277,-498 469,-354 648,-983 436,-1531 -73,-187 -63,-389 26,-569 90,-180 246,-310 439,-365 564,-160 959,-683 959,-1270 0,-201 82,-386 230,-521 149,-136 341,-200 541,-181 585,54 1141,-291 1353,-838 73,-188 216,-331 403,-403 188,-73 390,-64 570,26 525,261 1169,141 1564,-293 136,-148 321,-230 522,-230 201,0 386,82 521,230 396,434 1039,554 1565,293 180,-90 382,-99 570,-26 187,72 330,215 403,403 212,547 768,892 1353,838 200,-19 392,45 540,181 149,135 231,320 231,521 0,587 394,1110 959,1270 193,55 349,185 439,365 89,180 98,382 26,569 -212,548 -33,1177 435,1531 161,121 259,298 278,498 18,200 -46,392 -181,541 -396,434 -456,1085 -147,1585 106,170 133,371 78,564 -54,193 -184,349 -364,439 -525,262 -817,848 -709,1425 37,197 -10,394 -131,555 -121,160 -298,258 -498,277 -136,13 -266,47 -387,98 -20,7 -40,16 -59,27 -372,178 -651,526 -730,947 -37,198 -151,365 -322,471 -171,105 -372,133 -565,78 -517,-147 -1073,40 -1400,457 -4,4 -8,9 -12,14 -25,34 -50,68 -72,104 -106,171 -273,286 -470,323 -198,36 -395,-10 -555,-131 -181,-136 -390,-220 -604,-251zm3572 5421l-2843 -4448c98,23 199,36 301,36 81,0 162,-8 242,-23 240,-45 461,-156 640,-317l2146 3401 -486 1351zm1374 -2734c-223,-20 -431,113 -507,324l-117 325 -1987 -3149c172,-126 397,-171 610,-111 252,72 519,66 765,-13l1680 2663 -444 -39zm1214 106l-1924 -3049c189,-188 319,-430 369,-695 26,-141 95,-267 191,-364l2702 4226 -1338 -118z"/>
   </g>
  </g>
  <g id="_2025242165888">
  </g>
  <g id="_2025242167200">
  </g>
  <g id="_2025242166688">
  </g>
  <g id="_2025242167008">
  </g>
  <g id="_2025242196960">
  </g>
  <g id="_2025242196384">
  </g>
  <g id="_2025242197696">
  </g>
  <g id="_2025242197952">
  </g>
  <g id="_2025242197856">
  </g>
  <g id="_2025242197280">
  </g>
  <g id="_2025242197344">
  </g>
  <g id="_2025242195136">
  </g>
  <g id="_2025242195616">
  </g>
  <g id="_2025242194464">
  </g>
  <g id="_2025242194176">
  </g>
 </g>
</svg>
