<?xml version="1.0" encoding="UTF-8"?>
<!DOCTYPE svg PUBLIC "-//W3C//DTD SVG 1.1//EN" "http://www.w3.org/Graphics/SVG/1.1/DTD/svg11.dtd">
<!-- Creator: CorelDRAW X8 -->
<svg xmlns="http://www.w3.org/2000/svg" xml:space="preserve" width="210mm" height="297mm" version="1.1" style="shape-rendering:geometricPrecision; text-rendering:geometricPrecision; image-rendering:optimizeQuality; fill-rule:evenodd; clip-rule:evenodd"
viewBox="0 0 21000 29700"
 xmlns:xlink="http://www.w3.org/1999/xlink">
 <defs>
  <style type="text/css">
   <![CDATA[
    .fil0 {fill:#fff}
   ]]>
  </style>
 </defs>
 <g id="Camada_x0020_1">
  <metadata id="CorelCorpID_0Corel-Layer"/>
  <path class="fil0" d="M18551 6630l-16102 0c-541,0 -980,440 -980,980l0 3547c0,147 120,267 267,267 148,0 267,-120 267,-267l0 -3547c0,-245 200,-445 446,-445l16102 0c246,0 446,200 446,445l0 10688c0,245 -200,445 -446,445l-5531 0c18,-122 27,-247 27,-374 0,-127 -9,-252 -27,-374l3465 0c148,0 267,-120 267,-267 0,-678 552,-1229 1229,-1229 148,0 268,-120 268,-268l0 -4545c0,-147 -120,-267 -268,-267 -147,0 -267,120 -267,267l0 4298c-759,116 -1360,718 -1476,1476l-3359 0c-367,-957 -1294,-1638 -2379,-1638 -1085,0 -2012,681 -2379,1638l-3359 0c-116,-758 -717,-1360 -1476,-1476l0 -6061c759,-116 1360,-717 1476,-1476l11476 0c116,759 717,1360 1476,1476l0 517c0,148 120,267 267,267 148,0 268,-119 268,-267l0 -764c0,-147 -120,-267 -268,-267 -677,0 -1229,-551 -1229,-1229 0,-148 -119,-267 -267,-267l-11970 0c-148,0 -267,119 -267,267 0,678 -552,1229 -1229,1229 -148,0 -268,120 -268,267l0 6555c0,148 120,268 268,268 677,0 1229,551 1229,1229 0,147 119,267 267,267l3465 0c-18,122 -27,247 -27,374 0,127 9,252 27,374l-5531 0c-246,0 -446,-200 -446,-445l0 -5899c0,-147 -119,-267 -267,-267 -147,0 -267,120 -267,267l0 5899c0,540 439,979 980,979l5672 0c90,236 214,454 366,650l0 2860c0,89 44,172 118,221 74,50 168,60 250,26l1645 -671 1645 671c32,13 67,20 101,20 52,0 104,-16 149,-46 74,-49 118,-132 118,-221l0 -765c0,-147 -120,-267 -267,-267 -148,0 -267,120 -267,267l0 367 -1378 -562c-65,-27 -137,-27 -202,0l-1377 562 0 -1948c417,299 927,475 1478,475 551,0 1061,-176 1479,-475l0 333c0,147 119,267 267,267 147,0 267,-120 267,-267l0 -847c152,-196 276,-414 366,-650l5672 0c541,0 980,-439 980,-979l0 -10688c0,-540 -439,-980 -980,-980l0 0zm-8051 13752c-1110,0 -2013,-903 -2013,-2013 0,-1110 903,-2013 2013,-2013 1110,0 2013,903 2013,2013 0,1110 -903,2013 -2013,2013zm0 0z"/>
  <path class="fil0" d="M12851 10157c148,0 268,-119 268,-267 0,-148 -120,-267 -268,-267l-4702 0c-148,0 -268,119 -268,267 0,148 120,267 268,267l4702 0zm0 0z"/>
  <path class="fil0" d="M14633 11048l-8266 0c-147,0 -267,119 -267,267 0,148 120,267 267,267l8266 0c147,0 267,-119 267,-267 0,-148 -120,-267 -267,-267zm0 0z"/>
  <path class="fil0" d="M14633 12473l-8266 0c-147,0 -267,119 -267,267 0,148 120,267 267,267l8266 0c147,0 267,-119 267,-267 0,-147 -120,-267 -267,-267l0 0zm0 0z"/>
  <path class="fil0" d="M14633 14112l-1283 0c-148,0 -267,119 -267,267 0,147 119,267 267,267l1283 0c147,0 267,-120 267,-267 0,-148 -120,-267 -267,-267zm0 0z"/>
  <path class="fil0" d="M6367 14112c-147,0 -267,119 -267,267 0,147 120,267 267,267l1283 0c148,0 267,-120 267,-267 0,-148 -119,-267 -267,-267l-1283 0zm0 0z"/>
  <path class="fil0" d="M10500 16962c-776,0 -1407,631 -1407,1407 0,776 631,1407 1407,1407 776,0 1407,-631 1407,-1407 0,-776 -631,-1407 -1407,-1407zm0 2280c-481,0 -873,-392 -873,-873 0,-481 392,-873 873,-873 481,0 873,392 873,873 0,481 -392,873 -873,873zm0 0z"/>
  <path class="fil0" d="M9592 14379c0,501 407,908 908,908 501,0 908,-407 908,-908 0,-501 -407,-909 -908,-909 -501,0 -908,408 -908,909zm1282 0c0,206 -168,374 -374,374 -206,0 -374,-168 -374,-374 0,-206 168,-374 374,-374 206,0 374,168 374,374zm0 0z"/>
 </g>
</svg>
